<svg class="w-1/2" width="360" viewBox="0 0 360 418" fill="none" xmlns="http://www.w3.org/2000/svg">
<path d="M94.7386 218.548C95.8663 211.256 97.2142 204.264 98.7823 197.574C100.503 190.587 102.583 184.722 105.023 179.98C110.666 169.013 117.612 161.341 125.862 156.964C134.561 152.442 143.611 149.789 153.012 149.003C162.566 147.921 171.514 147.651 179.856 148.195C188.647 148.594 196.177 148.532 202.444 148.008C209.008 147.637 213.281 145.524 215.264 141.671C220.144 132.186 210.876 121.42 187.46 109.372C166.712 98.6971 145.463 92.6377 123.714 91.194L152.26 20.4118C167.768 20.1436 184.363 22.4968 202.047 27.4716C219.73 32.4463 236.278 38.8987 251.691 46.8289C273.032 57.8091 289.875 70.9735 302.221 86.3223C315.015 101.527 322.656 117.642 325.143 134.666C327.926 151.842 325.124 168.581 316.736 184.883C309.874 198.222 301.86 207.968 292.695 214.124C283.53 220.28 273.645 224.191 263.041 225.857C252.734 227.676 242.291 228.301 231.713 227.732C221.287 226.866 211.306 226.229 201.769 225.821C192.529 225.565 184.394 226.44 177.364 228.446C170.334 230.452 164.989 235.012 161.329 242.126L156.983 250.573L94.7386 218.548ZM65.9401 349.928C50.8236 342.151 40.8062 331.748 35.8878 318.722C30.9694 305.695 32.0178 292.364 39.0329 278.73C45.8956 265.391 56.0561 256.937 69.5147 253.365C83.2696 249.946 97.5571 252.049 112.377 259.674C126.605 266.994 136.249 277.392 141.312 290.868C146.526 304.047 145.779 317.158 139.069 330.199C131.748 344.427 121.584 353.254 108.574 356.682C95.8607 360.262 81.6494 358.011 65.9401 349.928Z" fill="#7B51BD" fill-opacity="0.3"/>
</svg>
